<svg width="700px" xmlns="http://www.w3.org/2000/svg" viewBox="0 0 110 31.006">
    <rect width="110" height="31" fill="none" stroke-width="0" />
    <path
        d="M10.83,31c-2.685,0-4.883-.502-6.593-1.499-1.716-1.004-3.122-2.28-4.237-3.824l2.616-2.147c1.172,1.461,2.407,2.547,3.705,3.265,1.298.718,2.844,1.073,4.642,1.073,2.166,0,3.825-.496,4.965-1.493,1.14-.997,1.716-2.389,1.716-4.18,0-1.448-.412-2.579-1.241-3.392-.83-.813-2.274-1.385-4.325-1.728l-3.338-.559c-1.457-.26-2.673-.642-3.661-1.162-.982-.515-1.78-1.137-2.375-1.868-.602-.731-1.026-1.531-1.279-2.408-.26-.877-.386-1.785-.386-2.732,0-2.751.899-4.828,2.698-6.232C5.522.705,7.948,0,11.001,0c2.394,0,4.414.407,6.061,1.22,1.64.813,2.964,1.95,3.958,3.418l-2.527,2.192c-.83-1.086-1.83-1.976-3.002-2.662-1.172-.686-2.685-1.029-4.535-1.029-2.027,0-3.578.426-4.661,1.283-1.089.851-1.628,2.134-1.628,3.837,0,1.334.405,2.427,1.222,3.265.811.839,2.274,1.442,4.382,1.81l3.211.559c1.457.26,2.685.642,3.68,1.162.994.515,1.805,1.131,2.419,1.849.614.718,1.051,1.518,1.305,2.408.253.889.386,1.823.386,2.795,0,2.776-.906,4.955-2.717,6.537-1.811,1.575-4.382,2.363-7.726,2.363v-.006Z"
        fill="currentColor" stroke-width="0" />
    <path
        d="M39.069,26.699h-.171c-.234.546-.519,1.08-.868,1.582-.348.502-.773.947-1.279,1.328-.507.375-1.102.68-1.799.915-.69.229-1.501.349-2.426.349-2.337,0-4.218-.75-5.63-2.242-1.419-1.486-2.122-3.595-2.122-6.327V7.915h3.464v13.778c0,2.058.45,3.589,1.343,4.587.893.997,2.21,1.499,3.946,1.499.697,0,1.374-.089,2.033-.26.665-.171,1.26-.432,1.78-.781.519-.349.937-.788,1.26-1.328.317-.534.475-1.181.475-1.938V7.915h3.464v18.975c0,1.919-1.552,3.475-3.464,3.475v-3.672l-.006.006Z"
        fill="currentColor" stroke-width="0" />
    <path
        d="M95.693,11.568h.171c.234-.546.519-1.08.868-1.582.348-.502.773-.947,1.279-1.328.507-.375,1.102-.68,1.799-.915.69-.229,1.501-.349,2.426-.349,2.337,0,4.217.75,5.63,2.242,1.418,1.486,2.121,3.596,2.121,6.327v14.388h-3.464v-13.779c0-2.058-.45-3.589-1.342-4.586-.893-.997-2.211-1.499-3.946-1.499-.697,0-1.374.089-2.033.26-.665.172-1.26.432-1.78.781s-.937.788-1.26,1.328c-.317.534-.475,1.182-.475,1.938v15.564h-3.464V11.383c0-1.918,1.552-3.475,3.464-3.475v3.672l.006-.013Z"
        fill="currentColor" stroke-width="0" />
    <path
        d="M56.371,30.866c-2.337,0-4.357-.394-6.048-1.194-1.691-.794-3.129-1.861-4.313-3.195l2.337-2.039c1.07,1.131,2.242,2.001,3.508,2.604,1.273.61,2.806.915,4.598.915s3.154-.311,4.269-.934c1.115-.622,1.666-1.601,1.666-2.935,0-.578-.108-1.067-.323-1.455-.215-.394-.513-.705-.887-.94-.374-.229-.792-.413-1.254-.54-.462-.127-.95-.241-1.476-.324l-3.509-.521c-.779-.114-1.628-.273-2.533-.476-.912-.203-1.742-.527-2.495-.978-.754-.451-1.381-1.048-1.881-1.804-.5-.756-.76-1.741-.76-2.96,0-1.131.222-2.109.671-2.935.45-.826,1.077-1.518,1.887-2.09.811-.565,1.761-.985,2.863-1.264,1.096-.273,2.299-.413,3.597-.413,2.02,0,3.775.318,5.263.953,1.488.635,2.768,1.518,3.832,2.655l-2.255,2.128c-.26-.318-.583-.648-.975-.978-.393-.33-.868-.635-1.431-.915-.564-.273-1.222-.502-1.97-.673-.754-.172-1.621-.26-2.597-.26-1.761,0-3.116.305-4.053.915-.937.61-1.406,1.493-1.406,2.655,0,.578.108,1.067.323,1.455.215.394.513.705.887.934.374.235.798.413,1.279.546.481.133.956.241,1.45.324l3.509.521c.811.114,1.659.273,2.559.476.893.203,1.716.527,2.47.978.754.451,1.381,1.048,1.881,1.804.5.756.76,1.741.76,2.96,0,2.23-.861,3.958-2.578,5.171-1.716,1.22-4.009,1.823-6.871,1.823l.006.006Z"
        fill="currentColor" stroke-width="0" />
    <path d="M69.766,30.371V.527h18.638v3.119h-14.997v23.599h14.997v3.119h-18.638v.006Z" fill="currentColor"
        stroke-width="0" />
    <path d="M79.12,14.033h7.435v3.456h-10.595v-.286c0-1.753,1.419-3.176,3.166-3.176l-.006.006Z" fill="currentColor"
        stroke-width="0" />
</svg>
