<svg version="1.1" xmlns="http://www.w3.org/2000/svg" viewBox="0 0 578 598">
    <path fill="currentColor" d="M295.2,588.9c-0.2-4.8-0.4-9.6-0.5-14.4c-0.2-10.9-0.3-21.9-0.6-32.8c-0.3-15.2-0.7-30.4-1.1-45.6
		c-0.3-15.2-0.7-30.4-0.9-45.6c-0.3-17.3-0.6-34.6-0.7-51.9c-0.2-37.5-0.3-75.1-0.3-112.6c0-21.5,0-42.9,0.1-64.4
		c0.1-20.3,0.3-40.7,0.6-61c0.2-12.2,0.5-24.4,0.8-36.5c0.3-14.4,0.8-28.8,1.1-43.2c0.4-16.9,0.6-33.7,0.9-50.6
		c0.2-7.7,0.5-15.4,0.9-23.1c0.1,6.4,0.2,12.9,0.3,19.3c0.2,11.7,0.4,23.5,0.6,35.2c0.3,15.2,0.7,30.4,1,45.6
		c0.5,21.6,1,43.1,1.3,64.7c0.3,21.2,0.4,42.5,0.5,63.7c0.1,15.4,0.1,30.8,0.1,46.3c0,16.5,0,33.1,0,49.6c0,24.2-0.1,48.5-0.2,72.7
		c-0.1,14.1-0.4,28.2-0.6,42.2c-0.3,14.3-0.6,28.6-0.9,42.9c-0.2,6.9-0.3,13.8-0.5,20.8c-0.3,13.2-0.6,26.4-0.8,39.5
		c-0.2,12.1-0.4,24.1-0.6,36.2c0,1,0,2,0,3C295.4,588.9,295.3,588.9,295.2,588.9z" />
    <path fill="currentColor" d="M284.7,7.9c0.1,10.4,0.2,20.8,0.4,31.2c0.3,16.6,0.7,33.3,1.1,49.9c0.3,13.7,0.6,27.5,0.9,41.2
		c0.4,18.4,0.8,36.8,1,55.3c0.2,20.1,0.2,40.2,0.2,60.3c0,12,0.1,23.9,0.1,35.9c0,13.1,0,26.1,0,39.2c0,21.3,0,42.7-0.1,64
		c-0.1,16.3-0.3,32.6-0.5,48.9c-0.1,9.4-0.2,18.8-0.5,28.1c-0.3,11.8-0.7,23.7-1,35.5c-0.1,4.5-0.1,8.9-0.2,13.4
		c-0.2,13.7-0.5,27.5-0.8,41.2c-0.2,12.7-0.5,25.5-0.7,38.2c0,0.2-0.1,0.4-0.3,0.6c-0.3-15.5-0.5-31-0.9-46.6
		c-0.3-14.4-0.7-28.8-1-43.2c-0.1-5.9-0.2-11.8-0.4-17.8c-0.2-11.7-0.6-23.5-0.8-35.2c-0.3-18.6-0.6-37.3-0.8-55.9
		c-0.2-16.6-0.2-33.3-0.2-49.9c0-19.3-0.1-38.6,0-58c0-20,0-40,0.1-60c0.1-20.8,0.3-41.6,0.5-62.3c0.2-13.8,0.6-27.7,1-41.5
		c0.1-5.7,0.2-11.4,0.3-17.1c0.3-15,0.7-29.9,1.1-44.9c0.2-8.5,0.2-17,0.4-25.5c0.2-8.4,0.4-16.7,0.6-25.1
		C284.5,7.9,284.6,7.9,284.7,7.9z" />
    <path fill="currentColor"
        d="M305.8,588.8c-0.2-9.8-0.5-19.6-0.7-29.5c-0.4-18.4-0.7-36.9-1.1-55.3c-0.4-18.6-0.9-37.3-1.2-55.9
		c-0.3-18.8-0.6-37.5-0.8-56.3c-0.2-17.1-0.2-34.2-0.2-51.3c0-25.4,0-50.7,0-76.1c0-15,0-29.9,0.1-44.9c0.2-22.1,0.4-44.2,0.7-66.4
		c0.1-10.1,0.4-20.1,0.7-30.2c0.4-17.2,0.8-34.4,1.2-51.6c0.3-15.1,0.6-30.2,0.9-45.2c0.1-6.1,0.4-12.3,0.8-18.4
		c0.1,8,0.2,16,0.3,23.9c0.2,13.5,0.4,27,0.7,40.6c0.3,15,0.8,29.9,1.1,44.9c0.3,14.9,0.6,29.7,0.9,44.6c0.6,27.7,0.6,55.4,0.6,83.1
		c0,15.8,0.1,31.5,0.1,47.3c0,13,0,25.9,0,38.9c-0.1,26.9-0.1,53.9-0.2,80.8c-0.1,13.9-0.4,27.7-0.7,41.6
		c-0.3,15.9-0.8,31.7-1.1,47.6c-0.4,16.4-0.7,32.8-1,49.3c-0.2,12.8-0.4,25.7-0.6,38.5C306,588.7,305.9,588.8,305.8,588.8z" />
    <path fill="currentColor" d="M274,7c0.1,8.7,0.2,17.4,0.3,26.1c0.2,14.5,0.5,29.1,0.8,43.6c0.2,10.5,0.5,21,0.7,31.5
		c0.4,18.3,1,36.6,1.2,55c0.3,27.6,0.4,55.2,0.6,82.8c0.1,15.2,0.1,30.4,0.1,45.6c0,16.8,0,33.5-0.1,50.3
		c-0.1,23.2-0.1,46.5-0.2,69.7c-0.1,13.5-0.4,27-0.6,40.5c-0.2,11.2-0.5,22.3-0.8,33.5c-0.2,9.6-0.5,19.2-0.7,28.8
		c-0.3,12.3-0.5,24.6-0.7,36.9c-0.2,12.5-0.5,25-0.9,37.5c-0.2-4.7-0.4-9.4-0.5-14.1c-0.2-11.2-0.4-22.3-0.6-33.5
		c-0.2-9.9-0.4-19.9-0.6-29.8c-0.3-12.1-0.6-24.1-0.8-36.2c-0.4-15.8-0.8-31.5-1-47.3c-0.3-15.6-0.4-31.3-0.5-46.9
		c-0.1-20.7-0.1-41.3-0.1-62c0-18.7,0-37.3,0-56c0-15.1,0.1-30.2,0.2-45.3c0.1-18.5,0.2-37.1,0.5-55.6c0.2-14.9,0.7-29.7,1-44.6
		c0.3-15.3,0.7-30.6,1-45.9c0.3-15.4,0.5-30.8,0.9-46.2c0.1-6.1,0.4-12.3,0.6-18.4C273.9,7,273.9,7,274,7z" />
    <path fill="currentColor" d="M316.9,7.8c0.1,9.1,0.2,18.3,0.3,27.4c0.3,15.3,0.6,30.6,0.9,45.9c0.1,7.3,0.3,14.5,0.5,21.8
		c0.3,13.3,0.8,26.6,1,39.9c0.4,26.1,0.6,52.3,0.9,78.4c0.1,16.5,0.2,33.1,0.2,49.6c0,16.9,0,33.7,0,50.6
		c-0.1,30.4-0.1,60.8-0.3,91.2c-0.1,15.4-0.5,30.8-0.8,46.2c-0.4,18.3-0.8,36.6-1.2,54.9c-0.3,12.8-0.5,25.7-0.8,38.5
		c-0.2,11.4-0.4,22.8-0.6,34.2c0,1,0,2-0.3,3c-0.1-4.3-0.3-8.7-0.4-13c-0.3-14.3-0.6-28.6-0.8-42.9c-0.2-8-0.3-16.1-0.5-24.1
		c-0.3-13.5-0.7-27-1-40.5c-0.2-6.5-0.2-13-0.3-19.4c-0.3-18.1-0.6-36.2-0.8-54.3c-0.2-17.8-0.2-35.5-0.2-53.3
		c0-26.5-0.1-53-0.1-79.4c0-14.3,0-28.6,0.1-42.9c0.1-19.3,0.3-38.7,0.6-58c0.2-14.5,0.7-29,1-43.6c0.3-15.4,0.7-30.8,1-46.2
		c0.3-14,0.5-27.9,0.8-41.9c0.2-7.4,0.5-14.7,0.7-22.1C316.8,7.8,316.8,7.8,316.9,7.8z" />
    <path fill="currentColor" d="M263.2,9c0.1,6.8,0.1,13.6,0.3,20.4c0.2,10.5,0.4,21,0.6,31.5c0.3,15.4,0.6,30.8,0.9,46.2
		c0.3,14.7,0.8,29.5,1.1,44.2c0.6,31.4,0.8,62.8,0.8,94.2c0,19.1,0.1,38.2,0.1,57.3c0,21-0.1,42-0.1,63c0,15.3-0.1,30.6-0.2,45.9
		c-0.2,15.7-0.5,31.5-0.8,47.2c-0.3,13.8-0.7,27.7-1,41.5c-0.4,17.1-0.6,34.2-1,51.3c-0.2,12.3-0.5,24.6-0.9,36.9
		c-0.2-5.8-0.4-11.6-0.5-17.4c-0.2-10.6-0.3-21.2-0.5-31.8c-0.3-14.3-0.7-28.6-1-42.9c-0.2-6.7-0.3-13.4-0.4-20.1
		c-0.2-11.3-0.5-22.6-0.7-33.8c-0.2-11.1-0.3-22.1-0.4-33.2c-0.2-17.9-0.3-35.7-0.4-53.6c-0.1-15.9-0.1-31.7-0.1-47.6
		c0-15.1,0-30.2,0-45.2c0-9.5,0.1-19,0.1-28.5c0.1-17.9,0.2-35.7,0.4-53.6c0.1-12.7,0.4-25.5,0.6-38.2c0.3-15.1,0.7-30.2,1-45.2
		c0.4-19.9,0.8-39.8,1.2-59.6c0.2-9.6,0.5-19.2,0.8-28.8C263.1,9,263.2,9,263.2,9z" />
    <path fill="currentColor" d="M327.6,9.8c0.1,7.4,0.1,14.7,0.2,22.1c0.3,15.7,0.5,31.5,0.9,47.2c0.4,19,0.9,38,1.3,57
		c0.3,12.5,0.5,25,0.6,37.5c0.2,31.4,0.4,62.8,0.5,94.2c0.1,24,0.1,48,0,72.1c0,24.6-0.1,49.2-0.3,73.7c-0.1,14.3-0.4,28.6-0.7,42.9
		c-0.4,18.9-0.9,37.7-1.3,56.6c-0.3,13-0.5,25.9-0.7,38.9c-0.2,11.4-0.4,22.8-0.5,34.2c0,0.9,0,1.7-0.3,2.6
		c-0.2-5.9-0.4-11.8-0.5-17.7c-0.2-10.6-0.3-21.2-0.5-31.8c-0.3-15.5-0.8-31-1.1-46.6c-0.3-14.3-0.7-28.6-0.9-42.9
		c-0.3-19.1-0.6-38.2-0.8-57.3c-0.2-20.6-0.2-41.1-0.3-61.7c-0.1-22.7-0.1-45.4,0-68c0-13.3,0.1-26.6,0.2-39.9
		c0.2-20.3,0.3-40.7,0.6-61c0.2-16.4,0.8-32.8,1.1-49.3c0.3-13.3,0.6-26.6,0.8-39.9c0.3-15.9,0.6-31.7,0.9-47.6
		c0.1-5.1,0.4-10.2,0.5-15.3C327.5,9.8,327.6,9.8,327.6,9.8z" />
    <path fill="currentColor" d="M252.5,9.9c0.1,8.3,0.1,16.5,0.3,24.8c0.3,16.5,0.7,33.1,1,49.6c0.1,7,0.2,14.1,0.4,21.1
		c0.3,13.8,0.7,27.7,1,41.5c0.2,9.3,0.3,18.5,0.4,27.8c0.2,26.5,0.4,53,0.5,79.4c0.1,19.9,0.1,39.8,0.1,59.7c0,19.7-0.1,39.3-0.2,59
		c0,13.1-0.1,26.1-0.2,39.2c-0.2,14.5-0.4,29-0.7,43.6c-0.2,8.6-0.4,17.2-0.6,25.8c-0.4,15.1-0.9,30.2-1.1,45.2
		c-0.4,20.1-0.6,40.2-1,60.3c0,0.6,0,1.1-0.2,1.7c-0.1-4.6-0.3-9.3-0.4-13.9c-0.2-12.2-0.4-24.3-0.6-36.5c-0.3-13.7-0.6-27.5-1-41.2
		c-0.4-16.8-0.8-33.5-1.1-50.3c-0.3-18.9-0.5-37.8-0.7-56.6c-0.2-20.9-0.3-41.8-0.3-62.7c0-18.9,0-37.8,0-56.6c0-12.5,0-25,0.1-37.5
		c0.1-16.1,0.2-32.2,0.4-48.3c0.2-18.9,0.6-37.8,0.9-56.6c0.4-18.8,0.9-37.5,1.3-56.3c0.3-13.7,0.5-27.5,0.7-41.2
		c0.1-7,0.4-14.1,0.6-21.1C252.4,9.8,252.4,9.8,252.5,9.9z" />
    <path fill="currentColor" d="M338.1,585.6c-0.1-4.6-0.3-9.1-0.4-13.7c-0.2-13.6-0.4-27.3-0.7-40.9c-0.3-14.9-0.7-29.7-1.1-44.6
		c-0.3-13.2-0.6-26.4-0.8-39.5c-0.3-19.9-0.6-39.8-0.8-59.7c-0.2-18.7-0.2-37.3-0.2-56c-0.1-19.3-0.1-38.7-0.1-58
		c0-14.1,0-28.2,0.1-42.2c0.1-19.7,0.3-39.3,0.5-59c0.2-17,0.7-34,1.1-50.9c0.4-16.3,0.7-32.6,1-48.9c0.3-14.6,0.5-29.3,0.8-43.9
		c0.1-6.1,0.4-12.3,0.7-18.4c0.1,10.7,0.3,21.3,0.4,32c0.3,14.5,0.6,29,0.9,43.6c0.2,8.3,0.3,16.5,0.5,24.8
		c0.3,11.7,0.6,23.5,0.9,35.2c0.2,11.5,0.4,23,0.5,34.5c0.2,16.4,0.3,32.8,0.4,49.3c0.1,16.2,0.1,32.4,0.1,48.6
		c0,19.2,0,38.4,0,57.7c0,21,0,42-0.2,63c-0.1,17.8-0.4,35.5-0.8,53.3c-0.5,22.1-1.1,44.2-1.6,66.3c-0.2,9.4-0.3,18.8-0.4,28.2
		c-0.2,13.1-0.4,26.1-0.7,39.2C338.2,585.5,338.2,585.5,338.1,585.6z" />
    <path fill="currentColor" d="M241.7,9.9c0.1,10.6,0.2,21.2,0.4,31.8c0.3,14.5,0.6,29,0.9,43.6c0.2,8.4,0.3,16.8,0.5,25.1
		c0.3,11.8,0.6,23.7,0.9,35.5c0.2,9.3,0.4,18.5,0.4,27.8c0.2,31.1,0.4,62.1,0.5,93.2c0.1,32.6,0,65.3,0,97.9
		c0,15.5-0.1,31.1-0.2,46.6c-0.1,11.4-0.4,22.8-0.6,34.2c-0.2,11.5-0.4,23-0.7,34.5c-0.3,12.5-0.7,25-1,37.5
		c-0.2,9.4-0.3,18.8-0.5,28.2c-0.2,13.3-0.4,26.6-0.6,39.9c0,0.8,0,1.6-0.2,2.3c-0.2-9.4-0.5-18.7-0.7-28.1
		c-0.2-9.8-0.2-19.7-0.4-29.5c-0.4-18.5-0.8-37.1-1.2-55.6c-0.3-12.1-0.6-24.1-0.7-36.2c-0.3-20.1-0.5-40.2-0.7-60.3
		c-0.1-12.3-0.2-24.6-0.2-36.9c-0.1-14.6-0.1-29.3,0-43.9c0-21.9,0-43.8,0.1-65.7c0.1-19.8,0.2-39.5,0.5-59.3
		c0.3-17.3,0.8-34.6,1.1-51.9c0.3-15.2,0.7-30.4,1-45.6c0.3-15.3,0.5-30.6,0.8-45.9c0.1-6.4,0.4-12.7,0.6-19.1
		C241.7,10,241.7,9.9,241.7,9.9z" />
    <path fill="currentColor" d="M349.1,13.2c0.1,10.2,0.2,20.3,0.3,30.5c0.1,8.4,0.4,16.8,0.5,25.1c0.3,14.9,0.6,29.7,0.9,44.6
		c0.2,11.5,0.5,23,0.8,34.5c0.2,12.3,0.5,24.6,0.6,36.9c0.2,29.6,0.4,59.2,0.5,88.8c0.1,29.3,0,58.6-0.1,87.8
		c-0.1,18.2-0.2,36.4-0.4,54.6c-0.1,12-0.4,23.9-0.6,35.9c-0.4,18.7-0.8,37.3-1.2,56c-0.3,14-0.7,27.9-0.9,41.9
		c-0.2,10.8-0.3,21.7-0.4,32.5c0,0.9,0,1.7-0.3,2.6c-0.3-12.4-0.5-24.8-0.8-37.2c-0.4-17.8-0.7-35.5-1.1-53.3
		c-0.3-13.9-0.6-27.7-0.9-41.6c-0.2-7.5-0.4-15-0.5-22.4c-0.2-14-0.3-27.9-0.4-41.9c-0.1-11.2-0.2-22.3-0.3-33.5
		c-0.1-20.1-0.1-40.2-0.1-60.3c0-20.8,0-41.6,0.1-62.3c0.1-20.1,0.2-40.2,0.5-60.3c0.3-18.3,0.8-36.6,1.2-55
		c0.3-14.5,0.6-29,0.9-43.6c0.2-11.6,0.4-23.2,0.6-34.9c0.2-8.5,0.5-17,0.7-25.4C348.9,13.2,349,13.2,349.1,13.2z" />
    <path fill="currentColor" d="M231,13.8c0.1,11.4,0.2,22.8,0.4,34.2c0.3,17.9,0.7,35.7,1.1,53.6c0.5,21.3,1,42.7,1.4,64
		c0.3,19.1,0.5,38.2,0.6,57.3c0.1,21.1,0.1,42.2,0.1,63.4c0,18,0,36,0,54c-0.1,21.8-0.1,43.6-0.3,65.4c-0.1,15.3-0.4,30.6-0.7,45.9
		c-0.4,18.1-0.8,36.2-1.2,54.3c-0.3,11.4-0.5,22.8-0.7,34.2c-0.2,14-0.5,27.9-0.7,41.9c0,0.9,0,1.8-0.2,2.7
		c-0.1-5-0.3-10.1-0.4-15.1c-0.3-14.3-0.5-28.6-0.8-42.9c-0.2-9.8-0.4-19.7-0.6-29.5c-0.3-13.1-0.7-26.1-1-39.2
		c-0.1-3.8-0.1-7.6-0.2-11.4c-0.2-18.9-0.5-37.8-0.7-56.6c-0.1-10.2-0.3-20.3-0.3-30.5c-0.1-21.3-0.1-42.7-0.1-64
		c0-13.3,0-26.6,0.1-39.9c0.1-19.4,0.1-38.9,0.4-58.3c0.2-21.1,0.7-42.2,1-63.3c0.1-7.7,0.3-15.4,0.5-23.1
		c0.3-11.8,0.6-23.7,0.8-35.5c0.2-12.8,0.4-25.7,0.6-38.5c0.1-7.6,0.4-15.2,0.6-22.8C230.9,13.8,231,13.8,231,13.8z" />
    <path fill="currentColor" d="M359.8,15.8c0.1,8.6,0.2,17.2,0.4,25.8c0.2,10.7,0.3,21.4,0.5,32.2c0.3,14.2,0.5,28.4,0.8,42.6
		c0.3,13.8,0.7,27.7,1,41.5c0.2,11.6,0.3,23.2,0.4,34.9c0.2,22.6,0.3,45.1,0.4,67.7c0.1,24.8,0,49.6,0,74.4c0,18.7,0,37.3-0.2,56
		c-0.2,18.3-0.4,36.6-0.8,55c-0.3,14.5-0.7,29-1,43.6c-0.4,17.3-0.6,34.6-0.9,51.9c-0.2,14.1-0.5,28.1-0.7,42.2c0,0.4,0,0.9-0.1,1.3
		c-0.1-5.5-0.3-10.9-0.4-16.4c-0.3-13.8-0.5-27.7-0.8-41.5c-0.2-9.7-0.4-19.4-0.6-29.2c-0.3-13.3-0.7-26.6-1-39.9
		c-0.1-5.3-0.2-10.5-0.2-15.8c-0.2-17.4-0.5-34.8-0.7-52.3c-0.1-9.8-0.3-19.7-0.3-29.5c-0.1-19-0.1-38-0.1-57c0-16.5,0-33.1,0-49.6
		c0.1-19.9,0.3-39.8,0.4-59.6c0.1-6.7,0.1-13.4,0.2-20.1c0.2-13.2,0.5-26.4,0.8-39.5c0.2-8.4,0.4-16.8,0.6-25.1
		c0.5-24.4,0.9-48.7,1.4-73.1c0.1-6.8,0.4-13.6,0.7-20.4C359.7,15.9,359.7,15.9,359.8,15.8z" />
    <path fill="currentColor" d="M220,581.4c-0.3-12.3-0.5-24.6-0.8-36.8c-0.3-14.5-0.5-29-0.8-43.6c-0.2-12.3-0.5-24.6-0.8-36.9
		c-0.2-10.4-0.5-20.8-0.7-31.2c-0.3-21.9-0.5-43.8-0.7-65.7c-0.1-15.7-0.2-31.5-0.2-47.2c0-16.8-0.1-33.5,0-50.3
		c0.1-21.8,0.3-43.6,0.4-65.3c0.1-9.3,0.1-18.5,0.2-27.8c0.2-14.5,0.6-29,0.9-43.6c0.3-16.4,0.7-32.8,1-49.3
		c0.2-10.6,0.4-21.2,0.6-31.8c0.2-11.8,0.5-23.7,1-35.5c0.1,3.2,0.1,6.4,0.2,9.6c0.3,19.8,0.6,39.5,0.9,59.3
		c0.2,10.5,0.4,21,0.7,31.5c0.4,18.2,0.9,36.4,1.2,54.6c0.3,23.9,0.5,47.8,0.6,71.7c0.1,25.1,0.1,50.3,0.1,75.4c0,24,0,48-0.2,72.1
		c-0.1,18.3-0.5,36.6-0.8,55c-0.3,14.9-0.7,29.7-1,44.5c-0.4,17-0.6,33.9-0.9,50.9c-0.2,13.4-0.5,26.8-0.7,40.2
		C220.2,581.3,220.1,581.3,220,581.4z" />
    <path fill="currentColor" d="M370.5,16.5c0.1,11.5,0.2,23,0.4,34.5c0.3,15,0.6,29.9,0.9,44.9c0.2,8.6,0.3,17.2,0.5,25.8
		c0.3,11.7,0.6,23.5,0.8,35.2c0.2,14.4,0.5,28.8,0.6,43.2c0.2,29.8,0.4,59.7,0.4,89.5c0,26.3-0.1,52.5-0.1,78.8
		c0,8.4-0.1,16.8-0.2,25.1c-0.2,16.2-0.4,32.4-0.7,48.6c-0.1,9-0.4,18.1-0.6,27.1c-0.4,16-0.8,31.9-1.1,47.9
		c-0.3,18.3-0.6,36.6-0.8,54.9c0,2.9,0,5.8-0.3,8.7c-0.2-5.7-0.4-11.3-0.5-17c-0.2-12.4-0.4-24.8-0.6-37.2
		c-0.2-12.3-0.5-24.6-0.7-36.8c-0.3-13.6-0.7-27.3-1-40.9c-0.2-6.9-0.2-13.9-0.3-20.8c-0.2-14.1-0.4-28.1-0.5-42.2
		c-0.1-11.9-0.2-23.9-0.2-35.9c-0.1-19.8-0.1-39.5-0.1-59.3c0-12.8,0-25.7,0-38.5c0.1-15.6,0.2-31.3,0.4-46.9
		c0.1-10.2,0.1-20.3,0.3-30.5c0.2-14,0.6-27.9,0.9-41.9c0.3-15.9,0.7-31.7,1-47.6c0.3-16.3,0.5-32.6,0.9-48.9
		c0.1-6.6,0.4-13.3,0.7-19.9C370.5,16.5,370.5,16.5,370.5,16.5z" />
    <path fill="currentColor" d="M209.2,578c-0.2-12.7-0.5-25.5-0.7-38.2c-0.2-8.7-0.4-17.4-0.5-26.1c-0.2-8.7-0.3-17.4-0.5-26.1
		c-0.2-11.3-0.5-22.6-0.7-33.8c-0.3-14.7-0.7-29.5-0.9-44.2c-0.2-14.3-0.2-28.6-0.3-42.9c-0.1-9.2-0.1-18.3-0.1-27.5
		c0-10.3,0-20.5-0.1-30.8c0-7-0.1-14.1,0-21.1c0.1-23.9,0.2-47.8,0.3-71.7c0.1-13.6,0.3-27.3,0.4-40.9c0.1-9.7,0.3-19.4,0.5-29.2
		c0.4-21.1,0.9-42.2,1.3-63.3c0.3-15.3,0.5-30.6,0.8-45.9c0.1-5.9,0.3-11.8,0.7-17.7c0.1,9.7,0.2,19.3,0.3,29
		c0.2,14.5,0.5,29,0.8,43.6c0.2,10.1,0.4,20.1,0.7,30.2c0.3,11.6,0.6,23.2,0.8,34.8c0.2,13.1,0.5,26.1,0.5,39.2
		c0.2,35.7,0.4,71.5,0.4,107.2c0.1,25.7,0,51.4-0.1,77.1c-0.1,12.3-0.3,24.6-0.5,36.8c-0.1,8.6-0.1,17.2-0.3,25.8
		c-0.3,13.1-0.7,26.1-1,39.2c-0.4,18.4-0.7,36.9-1,55.3c-0.2,10.8-0.4,21.7-0.5,32.5c0,2.9,0,5.8,0,8.7
		C209.5,578,209.4,578,209.2,578z" />
    <path fill="currentColor" d="M381.1,577.4c-0.1-5-0.3-10-0.4-15c-0.2-13.6-0.4-27.3-0.7-40.9c-0.3-13.8-0.7-27.7-1-41.5
		c-0.2-8.4-0.4-16.8-0.5-25.1c-0.2-11.6-0.5-23.2-0.7-34.8c-0.2-10.6-0.2-21.2-0.3-31.8c-0.1-12.8-0.2-25.7-0.2-38.5
		c-0.1-10.7-0.1-21.4-0.2-32.2c0-10.8-0.1-21.7,0-32.5c0.1-26.8,0.2-53.6,0.5-80.4c0.2-19.8,0.5-39.5,0.9-59.3
		c0.4-19.8,0.9-39.5,1.2-59.3c0.3-15.4,0.5-30.8,0.8-46.2c0.1-6.4,0.4-12.7,0.8-19.1c0.1,7,0.2,14,0.3,21
		c0.3,18.4,0.6,36.9,0.9,55.3c0.2,10.8,0.4,21.7,0.7,32.5c0.2,10.2,0.5,20.3,0.6,30.5c0.3,15.8,0.6,31.5,0.7,47.3
		c0.2,31,0.4,61.9,0.5,92.9c0,25.3-0.1,50.5-0.3,75.8c-0.1,18.2-0.3,36.4-0.6,54.6c-0.3,16.5-0.7,33.1-1.1,49.6
		c-0.3,16.6-0.6,33.3-0.9,49.9c-0.3,15.1-0.5,30.2-0.7,45.2c0,0.8,0,1.6,0,2.3C381.2,577.4,381.1,577.4,381.1,577.4z" />
    <path fill="currentColor" d="M198.8,21.7c0.1,7.4,0.2,14.7,0.3,22.1c0.2,11.7,0.4,23.5,0.6,35.2c0.3,16.6,0.6,33.3,1,49.9
		c0.3,13.4,0.7,26.8,1,40.2c0.2,8.7,0.2,17.4,0.3,26.1c0.1,11.2,0.3,22.3,0.4,33.5c0.1,22.2,0.1,44.5,0.1,66.7
		c0,24.5,0,48.9-0.1,73.4c0,10.9-0.3,21.9-0.4,32.8c-0.1,9.1-0.1,18.1-0.3,27.2c-0.3,16.8-0.8,33.5-1.1,50.3
		c-0.3,14.4-0.6,28.8-0.8,43.2c-0.3,18.5-0.6,37.1-1.1,55.6c-0.3-18.7-0.6-37.3-0.9-56c-0.3-17.2-0.8-34.4-1.1-51.6
		c-0.4-17.9-0.7-35.8-0.9-53.6c-0.3-21.1-0.4-42.2-0.6-63.3c-0.1-16.8-0.1-33.5-0.1-50.3c0-8.7-0.1-17.4-0.1-26.1
		c0.1-16.5,0.2-33.1,0.3-49.6c0.1-13.6,0.2-27.3,0.4-40.9c0.2-15.1,0.6-30.2,0.9-45.2c0.3-17.5,0.7-35.1,1-52.6
		c0.3-14.1,0.4-28.2,0.7-42.2c0.2-8.3,0.4-16.5,0.7-24.8C198.7,21.7,198.8,21.7,198.8,21.7z" />
    <path fill="currentColor" d="M392,26.5c0.1,3.3,0.1,6.6,0.2,9.9c0.3,21.5,0.6,42.9,1,64.4c0.2,11.1,0.4,22.1,0.6,33.2
		c0.3,12.7,0.6,25.5,0.8,38.2c0.2,15.3,0.4,30.6,0.5,45.9c0.2,22.3,0.3,44.7,0.4,67c0,26-0.1,52.1-0.2,78.1
		c-0.1,17.5-0.3,35.1-0.5,52.6c-0.1,11.6-0.4,23.2-0.6,34.8c-0.3,13.9-0.6,27.7-0.8,41.6c-0.2,12.2-0.5,24.4-0.7,36.5
		c-0.2,14.6-0.4,29.3-0.9,43.9c-0.1-4.4-0.3-8.8-0.4-13.3c-0.2-14.4-0.4-28.8-0.7-43.2c-0.3-16.9-0.8-33.7-1.1-50.6
		c-0.3-16.3-0.7-32.6-0.9-48.9c-0.3-20.9-0.4-41.8-0.6-62.7c-0.1-14.9-0.2-29.7-0.2-44.6c0-20.4,0.1-40.9,0.2-61.3
		c0-12.6,0.1-25.3,0.2-37.9c0.1-14,0.3-27.9,0.6-41.9c0.2-13.7,0.5-27.5,0.8-41.2c0.4-18.8,0.8-37.5,1.1-56.3
		c0.1-7.4,0.1-14.7,0.3-22.1c0.1-7.4,0.4-14.7,0.6-22.1C391.8,26.5,391.9,26.5,392,26.5z" />
    <path fill="currentColor" d="M188.1,25.8c0.1,7.1,0.2,14.3,0.3,21.4c0.2,11.8,0.4,23.7,0.6,35.5c0.3,16.9,0.7,33.7,1,50.6
		c0.2,11.8,0.5,23.7,0.7,35.5c0.3,16.6,0.6,33.3,0.6,49.9c0.2,35.4,0.2,70.8,0.3,106.3c0,12.2,0,24.4-0.1,36.5
		c-0.2,20.7-0.4,41.3-0.7,62c-0.2,11.4-0.4,22.8-0.7,34.2c-0.2,10.2-0.5,20.3-0.7,30.5c-0.3,14-0.5,27.9-0.7,41.9
		c-0.2,13.7-0.4,27.5-0.6,41.2c0,0.2-0.1,0.4-0.2,1.1c-0.3-11.7-0.5-22.8-0.8-34c-0.3-16.4-0.5-32.8-0.8-49.3
		c-0.3-16.9-0.8-33.7-1.1-50.6c-0.2-10.8-0.3-21.7-0.4-32.5c-0.1-5.6-0.3-11.2-0.3-16.8c-0.1-18.5-0.2-37.1-0.3-55.6
		c0-18.2-0.1-36.4,0-54.6c0-21.3,0.1-42.7,0.2-64c0.2-18.8,0.4-37.5,0.8-56.3c0.4-20.3,0.9-40.7,1.3-61c0.3-15.2,0.4-30.4,0.7-45.6
		c0.2-8.8,0.5-17.6,0.7-26.4C188,25.8,188,25.8,188.1,25.8z" />
    <path fill="currentColor" d="M402.7,28.5c0.1,8.2,0.2,16.3,0.3,24.5c0.2,12.3,0.4,24.6,0.6,36.9c0.3,15.9,0.6,31.7,0.9,47.6
		c0.3,14.1,0.6,28.1,0.8,42.2c0.3,18.5,0.4,37.1,0.6,55.6c0.1,12.2,0.3,24.3,0.3,36.5c0,23.8,0,47.6-0.1,71.4c-0.1,19-0.3,38-0.5,57
		c-0.2,14.2-0.4,28.4-0.7,42.5c-0.2,13-0.5,25.9-0.8,38.9c-0.3,15.2-0.5,30.4-0.8,45.6c-0.2,14.3-0.4,28.6-0.8,42.9
		c-0.2-11-0.5-22-0.7-32.9c-0.3-15.9-0.5-31.7-0.8-47.6c-0.3-15.4-0.6-30.8-0.9-46.2c-0.2-11.7-0.5-23.5-0.6-35.2
		c-0.3-24.2-0.5-48.5-0.6-72.7c-0.1-18.8,0-37.5,0-56.3c0-20.8,0.1-41.6,0.2-62.3c0.1-16.6,0.4-33.3,0.7-49.9
		c0.2-11.3,0.4-22.6,0.7-33.8c0.3-13.3,0.6-26.6,0.8-39.9c0.2-13.8,0.4-27.7,0.7-41.6c0.2-7.7,0.5-15.3,0.7-23
		C402.6,28.5,402.7,28.5,402.7,28.5z" />
    <path fill="currentColor" d="M177.1,567.2c-0.2-10.9-0.5-21.9-0.7-32.8c-0.4-21-0.7-42-1-63c-0.2-13-0.5-25.9-0.7-38.9
		c-0.2-11.5-0.4-23-0.6-34.5c-0.2-9.8-0.3-19.7-0.4-29.5c-0.1-15.4-0.1-30.8-0.1-46.3c0-25.5-0.1-51,0-76.4
		c0.1-16.3,0.3-32.6,0.5-48.9c0.1-10.3,0.3-20.6,0.4-30.8c0.2-11.5,0.5-23,0.7-34.5c0.2-10.7,0.4-21.5,0.6-32.2
		c0.2-14.3,0.4-28.6,0.7-42.9c0.2-9.3,0.5-18.5,0.9-27.8c0.1,9.2,0.2,18.4,0.3,27.6c0.3,17.8,0.6,35.5,0.9,53.3
		c0.2,10.1,0.4,20.1,0.6,30.2c0.3,13,0.6,25.9,0.8,38.9c0.2,14.4,0.3,28.8,0.4,43.2c0.1,16.6,0.4,33.3,0.4,49.9
		c0,26.5,0,53-0.1,79.4c-0.1,17.9-0.3,35.7-0.5,53.6c-0.2,12.7-0.4,25.5-0.7,38.2c-0.3,16.6-0.8,33.3-1.1,49.9
		c-0.2,7.9-0.2,15.9-0.3,23.8c-0.2,15.9-0.5,31.7-0.7,47.6c0,1,0,2,0,3C177.3,567.2,177.2,567.2,177.1,567.2z" />
    <path fill="currentColor" d="M413.1,563.9c-0.3-17.1-0.5-34.2-0.9-51.3c-0.3-19.1-0.8-38.2-1.1-57.3c-0.1-7.6-0.2-15.2-0.3-22.8
		c-0.2-14-0.5-27.9-0.7-41.9c-0.2-14.9-0.3-29.7-0.4-44.6c-0.1-21.3-0.1-42.7-0.1-64c0-14.4,0-28.8,0.1-43.2
		c0.1-9.4,0.2-18.8,0.4-28.2c0.1-12.2,0.2-24.4,0.4-36.5c0.3-17.3,0.8-34.6,1.1-51.9c0.4-21.6,0.6-43.1,1-64.7
		c0.1-8.3,0.4-16.5,0.8-24.8c0.1,8.7,0.2,17.5,0.3,26.2c0.3,18.2,0.5,36.4,0.8,54.6c0.2,11.2,0.4,22.3,0.6,33.5
		c0.3,14.3,0.6,28.6,0.8,42.9c0.2,17.1,0.4,34.2,0.5,51.3c0.1,11.3,0.2,22.6,0.3,33.8c0,9.3,0,18.5,0,27.8c0,17.5-0.1,35.1-0.2,52.6
		c-0.1,12.3-0.2,24.6-0.3,36.9c-0.2,14.9-0.4,29.7-0.6,44.6c-0.2,13.9-0.6,27.7-0.8,41.5c-0.2,13.6-0.4,27.3-0.6,40.9
		c-0.2,12-0.4,23.9-0.6,35.9c0,2.9,0,5.8,0,8.7C413.4,563.9,413.3,563.9,413.1,563.9z" />
    <path fill="currentColor" d="M166.4,562c-0.1-3.7-0.3-7.4-0.3-11c-0.2-13.6-0.4-27.3-0.6-40.9c-0.2-10.1-0.4-20.1-0.5-30.2
		c-0.4-19-0.8-38-1.1-57c-0.2-12.7-0.3-25.5-0.4-38.2c-0.1-12.4-0.3-24.8-0.4-37.2c-0.1-27.2,0-54.3,0-81.5c0-9.6,0-19.2,0.1-28.8
		c0.1-14,0.3-27.9,0.5-41.9c0.3-18.2,0.6-36.4,0.9-54.6c0.2-12.2,0.5-24.4,0.7-36.5c0.3-15.3,0.4-30.6,0.7-45.9
		c0.1-7.7,0.4-15.4,0.8-23.1c0.1,9.6,0.2,19.2,0.3,28.8c0.2,16.8,0.5,33.5,0.8,50.3c0.2,11.7,0.5,23.5,0.7,35.2
		c0.3,17.4,0.8,34.9,1,52.3c0.2,14.3,0.2,28.6,0.3,42.9c0.1,10.2,0.2,20.3,0.2,30.5c0,12.1,0,24.1,0,36.2c0,9.6,0,19.2-0.1,28.8
		c-0.1,16.8-0.2,33.5-0.4,50.3c-0.2,14.5-0.4,29-0.7,43.6c-0.3,17.3-0.7,34.6-1.1,51.9c-0.2,11.1-0.3,22.1-0.4,33.2
		c-0.2,14.3-0.5,28.6-0.7,42.9C166.5,562,166.5,562,166.4,562z" />
    <path fill="currentColor" d="M424.2,38c0.1,9.4,0.2,18.8,0.3,28.2c0.2,17.5,0.5,35.1,0.8,52.6c0.2,14.1,0.5,28.2,0.8,42.2
		c0.2,13.1,0.5,26.1,0.6,39.2c0.3,26.8,0.5,53.6,0.6,80.4c0.1,23.6-0.1,47.2-0.1,70.7c-0.1,13.7-0.1,27.5-0.3,41.2
		c-0.3,23.7-0.8,47.4-1.2,71.1c-0.2,15-0.5,29.9-0.7,44.9c-0.2,16.4-0.5,32.8-0.7,49.3c0,0.3,0,0.6-0.4,0.9
		c-0.3-16-0.5-31.9-0.8-47.9c-0.3-19.1-0.7-38.2-1-57.3c-0.2-10.1-0.3-20.1-0.5-30.2c-0.2-15.3-0.5-30.6-0.7-45.9
		c-0.2-19.7-0.3-39.3-0.3-59c-0.1-19.9,0-39.8,0-59.7c0-8.8,0.1-17.7,0.2-26.5c0.1-14.1,0.2-28.2,0.5-42.2c0.3-16.9,0.7-33.7,1-50.6
		c0.2-11,0.3-21.9,0.5-32.9c0.2-13.4,0.4-26.8,0.6-40.2c0.2-9.5,0.4-19,0.7-28.5C424.1,38,424.1,38,424.2,38z" />
    <path fill="currentColor" d="M155.6,557.2c-0.3-14.5-0.5-29-0.8-43.5c-0.3-16.3-0.5-32.6-0.8-48.9c-0.3-17.3-0.6-34.6-0.9-51.9
		c-0.2-17.8-0.4-35.5-0.6-53.3c-0.1-16-0.3-31.9-0.3-47.9c0-15.5,0-31.1,0.1-46.6c0.1-22.7,0.3-45.3,0.6-68
		c0.2-15.2,0.5-30.4,0.7-45.6c0.2-11.9,0.4-23.9,0.6-35.8c0.3-16,0.5-31.9,0.7-47.9c0.2-8.8,0.4-17.6,0.9-26.4
		c0.1,8.5,0.2,17,0.3,25.5c0.3,19,0.6,38,0.9,57c0.2,12.6,0.4,25.2,0.7,37.9c0.3,16.8,0.6,33.5,0.9,50.3c0.2,10.9,0.2,21.9,0.2,32.8
		c0.1,20.4,0.2,40.9,0.2,61.3c0,23.2-0.1,46.5-0.3,69.7c-0.1,15.7-0.4,31.5-0.7,47.2c-0.3,16.2-0.6,32.4-0.9,48.6
		c-0.2,12.3-0.4,24.6-0.6,36.9c-0.2,12.7-0.4,25.5-0.6,38.2c0,3.6,0,7.1,0,10.7C155.9,557.2,155.7,557.2,155.6,557.2z" />
    <path fill="currentColor" d="M435,45.2c0.1,10.2,0.2,20.3,0.3,30.5c0.3,18.3,0.5,36.6,0.8,55c0.2,13.7,0.5,27.5,0.7,41.2
		c0.2,15.5,0.5,31.1,0.6,46.6c0.2,28.6,0.4,57.2,0.5,85.8c0,15.2,0,30.4-0.2,45.6c-0.2,20.4-0.4,40.9-0.6,61.3
		c-0.2,16.2-0.5,32.4-0.7,48.6c-0.2,13.4-0.5,26.8-0.7,40.2c-0.3,17.5-0.5,35.1-0.9,52.6c-0.1-4.4-0.3-8.8-0.3-13.3
		c-0.4-20-0.7-40-1.1-60c-0.2-9.8-0.3-19.7-0.4-29.5c-0.2-12.8-0.4-25.7-0.6-38.5c-0.2-17.5-0.5-35.1-0.7-52.6
		c-0.2-19.3-0.3-38.6-0.3-57.9c0-15.5,0.1-31,0.2-46.6c0.1-19.3,0.2-38.6,0.5-58c0.3-19,0.7-38,1.1-57c0.1-7.7,0.2-15.4,0.3-23.1
		c0.2-16,0.4-31.9,0.7-47.9c0.1-7.6,0.4-15.2,0.6-22.8C434.8,45.3,434.9,45.3,435,45.2z" />
    <path fill="currentColor" d="M145.2,48.6c0.1,7,0.2,14.1,0.3,21.1c0.2,13.7,0.4,27.5,0.6,41.2c0.3,19.2,0.6,38.4,0.9,57.7
		c0.2,14.2,0.4,28.4,0.6,42.6c0.6,36.2,0.6,72.4,0.5,108.6c0,16.9-0.1,33.7-0.2,50.6c-0.1,15.1-0.3,30.2-0.5,45.2
		c-0.2,15.1-0.5,30.2-0.8,45.2c-0.2,14.3-0.5,28.6-0.7,42.9c-0.2,16.1-0.5,32.2-0.7,48.3c0,0.2-0.1,0.4-0.2,1
		c-0.1-4.9-0.3-9.3-0.3-13.8c-0.3-17.5-0.5-35.1-0.8-52.6c-0.5-29.7-1-59.4-1.4-89.2c-0.3-20.6-0.4-41.1-0.6-61.7
		c-0.1-10.5-0.1-21-0.1-31.5c0-15.1,0-30.2,0.1-45.2c0.1-18.5,0.2-37.1,0.4-55.6c0.1-13.5,0.4-27,0.6-40.6
		c0.3-16.2,0.6-32.4,0.8-48.6c0.2-13.3,0.3-26.6,0.5-39.9c0.1-8.6,0.4-17.2,0.6-25.8C145,48.6,145.1,48.6,145.2,48.6z" />
    <path fill="currentColor" d="M445.4,545.9c-0.1-5.7-0.3-11.4-0.4-17.1c-0.2-13.1-0.3-26.1-0.5-39.2c-0.2-13.5-0.4-27-0.6-40.5
		c-0.2-11.5-0.5-23-0.6-34.5c-0.3-22.9-0.5-45.8-0.7-68.7c-0.1-10.9-0.2-21.9-0.2-32.8c0.1-25.2,0.2-50.5,0.3-75.7
		c0-9.5,0.1-19,0.2-28.5c0.3-19.8,0.7-39.5,1-59.3c0.1-8,0.2-16.1,0.3-24.1c0.2-12.1,0.3-24.1,0.5-36.2c0.2-13,0.5-26.1,1-39.1
		c0.1,11.8,0.2,23.7,0.4,35.5c0.1,5.8,0.2,11.6,0.3,17.4c0.2,12.5,0.3,25,0.5,37.5c0.2,13.3,0.4,26.6,0.6,39.9
		c0.3,20.8,0.5,41.6,0.7,62.3c0.2,15,0.3,29.9,0.3,44.9c0,16.6,0,33.3-0.1,49.9c-0.1,20.8-0.4,41.5-0.6,62.3
		c-0.2,16.5-0.5,33.1-0.7,49.6c-0.2,15.4-0.5,30.8-0.7,46.2c-0.2,14.9-0.3,29.7-0.5,44.6c0,1.9-0.1,3.8-0.2,5.6
		C445.5,545.9,445.5,545.9,445.4,545.9z" />
    <path fill="currentColor" d="M134.2,545.7c-0.1-6.5-0.3-12.9-0.4-19.4c-0.3-17.9-0.5-35.7-0.8-53.6c-0.2-14.7-0.5-29.5-0.7-44.2
		c-0.2-16.8-0.5-33.5-0.6-50.3c-0.2-31.7-0.4-63.5-0.5-95.2c0-19.9,0.1-39.8,0.3-59.7c0.1-16.8,0.4-33.5,0.7-50.3
		c0.2-15.3,0.5-30.6,0.7-45.9c0.2-16.1,0.4-32.2,0.7-48.3c0.1-8.7,0.4-17.4,0.8-26.1c0.1,5,0.1,10.1,0.2,15.1
		c0.2,13,0.4,25.9,0.5,38.9c0.1,11.3,0.2,22.6,0.4,33.8c0.3,17.1,0.7,34.2,0.9,51.3c0.2,12.7,0.2,25.5,0.3,38.2
		c0.1,11.5,0.3,23,0.3,34.5c0.1,11.9,0.1,23.9,0.1,35.8c0,14.4,0,28.8-0.1,43.2c-0.1,19-0.4,38-0.6,57c-0.2,16.4-0.5,32.8-0.7,49.3
		c-0.2,16.2-0.5,32.4-0.7,48.6c-0.2,15.7-0.5,31.5-0.7,47.2C134.3,545.7,134.3,545.7,134.2,545.7z" />
    <path fill="currentColor" d="M456.2,541.9c-0.2-7-0.4-14-0.5-21c-0.2-13.6-0.4-27.2-0.6-40.9c-0.3-20-0.7-40-1-60
		c-0.2-14.1-0.4-28.2-0.5-42.2c-0.2-25.4-0.4-50.7-0.4-76.1c0-23.6,0.1-47.1,0.2-70.7c0.1-17.8,0.4-35.5,0.6-53.3
		c0.2-15.5,0.5-31.1,0.7-46.6c0.2-15.8,0.4-31.5,0.6-47.3c0.1-8.8,0.5-17.6,0.9-26.4c0.1,5.2,0.2,10.4,0.2,15.6
		c0.1,10.4,0.2,20.8,0.3,31.2c0.2,15.2,0.4,30.4,0.6,45.6c0.2,16.1,0.5,32.2,0.7,48.3c0.3,28.4,0.5,56.8,0.6,85.1
		c0.1,24.6-0.1,49.2-0.2,73.7c0,8.8,0,17.7-0.1,26.5c-0.2,15.6-0.4,31.3-0.6,46.9c-0.2,17.1-0.4,34.2-0.7,51.3
		c-0.2,15-0.4,29.9-0.6,44.9c-0.1,5.1-0.1,10.3-0.2,15.4C456.3,541.9,456.3,541.9,456.2,541.9z" />
    <path fill="currentColor" d="M123.5,537.9c-0.2-7.9-0.4-15.8-0.6-23.8c-0.2-15.3-0.4-30.6-0.5-45.9c-0.2-19-0.5-38-0.8-57
		c-0.1-9.9-0.3-19.9-0.4-29.8c-0.1-11.2-0.3-22.3-0.4-33.5c-0.1-13.4-0.1-26.8-0.1-40.2c0-16.4,0-32.8,0.1-49.3
		c0.1-18,0.3-36,0.5-54c0.2-17.1,0.4-34.2,0.7-51.3c0.3-21.2,0.5-42.5,0.8-63.7c0.1-8.6,0.4-17.2,0.6-25.8c0-1.4,0-2.9,0.2-4.4
		c0.1,4.2,0.1,8.3,0.2,12.5c0.2,15.3,0.4,30.6,0.6,45.9c0.1,11.2,0.2,22.3,0.4,33.5c0.2,15.6,0.5,31.3,0.7,46.9
		c0.2,19.2,0.4,38.4,0.6,57.6c0.1,10.4,0.1,20.8,0.1,31.2c-0.1,30.6-0.2,61.2-0.4,91.8c-0.1,12-0.3,23.9-0.5,35.9
		c-0.1,7.8-0.1,15.6-0.2,23.5c-0.2,12.7-0.5,25.5-0.6,38.2c-0.2,15.1-0.4,30.2-0.5,45.2c-0.1,5.4-0.2,10.9-0.2,16.3
		C123.6,537.9,123.6,537.9,123.5,537.9z" />
    <path fill="currentColor" d="M467.1,66.7c0.1,8.4,0.2,16.7,0.3,25.1c0.2,11.8,0.4,23.7,0.5,35.5c0.1,11.7,0.2,23.5,0.3,35.2
		c0.2,19,0.5,38,0.7,57c0.2,24.2,0.3,48.5,0.4,72.7c0.1,19.8,0,39.6-0.1,59.3c-0.1,20.7-0.4,41.3-0.7,62
		c-0.2,16.5-0.4,33.1-0.6,49.6c-0.2,14.4-0.4,28.8-0.6,43.2c-0.1,8.2-0.2,16.3-0.3,24.5c0,0.7,0,1.5-0.2,2.2
		c-0.1-5.7-0.3-11.4-0.4-17.1c-0.3-16.5-0.5-33.1-0.7-49.6c-0.2-16.9-0.5-33.7-0.7-50.6c-0.3-21.3-0.5-42.7-0.7-64
		c-0.2-18.9-0.2-37.8-0.2-56.6c0-13.5,0-27,0.1-40.6c0.2-20.2,0.4-40.4,0.6-60.7c0.2-15.3,0.4-30.6,0.6-45.9
		c0.2-11.1,0.4-22.1,0.5-33.2c0.1-8.5,0.1-17,0.3-25.5c0.1-7.6,0.4-15.1,0.6-22.7C467,66.7,467.1,66.7,467.1,66.7z" />
    <path fill="currentColor" d="M113,68.2c0.1,9.4,0.1,18.8,0.2,28.1c0.2,15.1,0.4,30.2,0.6,45.2c0.3,21.8,0.6,43.6,0.8,65.3
		c0.2,23.5,0.5,46.9,0.6,70.4c0.1,23.5,0,46.9-0.1,70.4c-0.2,24.9-0.5,49.8-0.8,74.7c-0.2,18.1-0.4,36.2-0.7,54.3
		c-0.2,18.1-0.5,36.2-0.9,54.3c-0.1-5.7-0.3-11.4-0.4-17.1c-0.3-19.1-0.5-38.2-0.7-57.3c-0.2-18.3-0.6-36.6-0.8-55
		c-0.2-18.7-0.3-37.3-0.4-56c-0.1-23.8-0.2-47.6-0.1-71.4c0-23,0.2-46,0.4-69.1c0.1-16,0.3-31.9,0.5-47.9c0.3-21.3,0.5-42.7,0.8-64
		c0.1-8.4,0.4-16.7,0.6-25.1C112.9,68.2,112.9,68.2,113,68.2z" />
    <path fill="currentColor" d="M477.9,524.3c-3.4-150-3.3-300.1,0-450.1c0.1,5.5,0.1,11,0.2,16.5c0.1,11.1,0.2,22.1,0.4,33.2
		c0.2,17.9,0.4,35.8,0.6,53.6c0.2,21.4,0.5,42.9,0.7,64.3c0.1,11.6,0.2,23.2,0.3,34.8c0,14.5,0,29.1,0,43.6
		c-0.1,15.5-0.2,31-0.3,46.6c-0.1,13.3-0.2,26.6-0.4,39.9c-0.2,19.4-0.5,38.9-0.7,58.3c-0.2,19.1-0.4,38.2-0.7,57.3
		C477.9,522.9,477.9,523.6,477.9,524.3z" />
    <path fill="currentColor" d="M102.2,74.4c0.1,11.2,0.2,22.3,0.3,33.5c0.2,15.3,0.4,30.6,0.6,45.9c0.1,11.7,0.3,23.5,0.4,35.2
		c0.2,21.1,0.4,42.2,0.6,63.3c0.1,22.2,0.2,44.5,0.3,66.7c0,6.3-0.2,12.5-0.2,18.8c-0.1,9.5-0.1,19-0.2,28.5
		c-0.1,13.5-0.2,27-0.3,40.6c-0.1,14.2-0.3,28.4-0.5,42.5c-0.2,14.2-0.4,28.4-0.6,42.6c-0.1,9.8-0.2,19.7-0.3,29.5
		c0,0.3-0.1,0.7-0.2,1c-1.1-74.7-2.2-149.4-2.2-224.1C99.9,223.6,101,149,102.2,74.4z" />
    <path fill="currentColor" d="M488.2,84.9c1,71.9,2.1,143.8,2.1,215.8c0,71.8-1.2,143.7-1.9,215.5c-0.2-8.9-0.5-17.9-0.6-26.8
		c-0.3-19.2-0.4-38.4-0.6-57.6c-0.2-20.9-0.5-41.8-0.7-62.7c-0.2-32.4-0.3-64.8-0.3-97.2c0-19.4,0.3-38.9,0.5-58.3
		c0.1-14.7,0.2-29.5,0.3-44.2c0.1-14,0.3-27.9,0.5-41.9c0.2-11.6,0.4-23.2,0.6-34.8C488.2,90.1,488.2,87.5,488.2,84.9z" />
    <path fill="currentColor"
        d="M91.5,85.1c0.1,16.5,0.3,33.1,0.4,49.6c0.1,13.6,0.3,27.3,0.5,40.9c0.1,10.1,0.2,20.1,0.3,30.2
		c0.2,20.7,0.4,41.3,0.5,62c0.1,18.8,0.1,37.5,0.1,56.3c0,18-0.2,36-0.3,54c-0.2,19.3-0.4,38.6-0.6,58c-0.1,5.5-0.1,11-0.1,16.4
		c-0.1,11.2-0.3,22.3-0.4,33.5c-0.1,9.2-0.2,18.3-0.3,27.9c-0.8-9.3-2.3-172.6-2.2-214.4C89.6,228,90.1,156.5,91.5,85.1z" />
    <path fill="currentColor"
        d="M499.1,93.6c2.2,136.5,2.2,272.9,0,409.4c-1.1-68.2-1.8-136.5-1.8-204.7C497.3,230.1,497.9,161.8,499.1,93.6z" />
    <path fill="currentColor" d="M80.8,97c0.1,16.9,0.2,33.7,0.4,50.6c0.2,26.7,0.5,53.4,0.7,80.1c0.2,21.3,0.3,42.7,0.3,64
		c0,20.3,0,40.7-0.1,61c0,10.3-0.2,20.5-0.3,30.8c-0.1,12.6-0.1,25.3-0.3,37.9c-0.2,22.3-0.4,44.7-0.6,67c0,4.6,0,9.2-0.3,13.7
		c-0.1-6.8-0.3-13.7-0.4-20.5c-0.2-21.4-0.5-42.9-0.6-64.3c-0.2-32.4-0.5-64.8-0.6-97.2c-0.1-29.6,0-59.2,0.1-88.8
		c0-10.2,0.1-20.3,0.2-30.5c0.2-23.1,0.4-46.2,0.6-69.4c0.1-11.5,0.4-23,0.7-34.5C80.7,97,80.7,97,80.8,97z" />
    <path fill="currentColor" d="M509.9,492.9c-2.1-129.8-2.1-259.5,0-389.3C511.6,233.4,511.6,363.2,509.9,492.9z" />
    <path fill="currentColor" d="M70,106.3c0.1,11.6,0.2,23.2,0.3,34.9c0.1,11.5,0.3,23,0.4,34.5c0.1,13.1,0.2,26.1,0.2,39.2
		c0.1,20.4,0.2,40.9,0.3,61.3c0,11.9,0.1,23.9,0,35.8c-0.1,22.7-0.2,45.4-0.3,68c-0.1,11.7-0.2,23.5-0.3,35.2
		c-0.1,17.8-0.3,35.5-0.4,53.3c-0.1,6.8-0.1,13.6-0.3,20.3C67.9,361.4,67.9,233.9,70,106.3z" />
    <path fill="currentColor" d="M520.6,480.6c-1.9-121.2-1.9-242.4,0-363.6C522.1,238.2,522.1,359.4,520.6,480.6z" />
    <path fill="currentColor" d="M59.1,121.3c1.5,118.7,1.5,237.4,0,356.2c-0.1-9.3-0.3-18.6-0.4-27.9c-0.2-15.7-0.4-31.5-0.5-47.2
		c-0.1-18.4-0.2-36.9-0.3-55.3c-0.1-12.7-0.2-25.4-0.2-38.2c0-9.3,0-18.5,0.1-27.8c0-13.5,0.1-27,0.2-40.5c0.1-20,0.2-40,0.3-60
		c0-8.5,0.1-17,0.2-25.5c0.1-9.2,0.4-18.3,0.5-27.5C59.1,125.5,59.1,123.4,59.1,121.3z" />
    <path fill="currentColor" d="M531.3,466.7c-1.5-111.8-1.4-223.6,0-335.4C532.6,243.1,532.6,354.9,531.3,466.7z" />
    <path fill="currentColor" d="M48.5,136c1.2,108,1.2,216,0,324.5C47.1,440.3,47,179.4,48.5,136z" />
    <path fill="currentColor" d="M542.1,452c-1.3-101.1-1.3-202.2,0-303.3C543,249.8,543.1,350.9,542.1,452z" />
    <path fill="currentColor" d="M37.7,443.9c-1.3-96.9-1.3-193.8,0-290.7C38.6,250.2,38.6,347,37.7,443.9z" />
    <path fill="currentColor" d="M552.9,431.2c-1.2-88.2-1.2-176.4,0-264.5C553.5,254.9,553.5,343,552.9,431.2z" />
    <path fill="currentColor" d="M27,424.4c-1.1-83.4-1.1-166.8,0-250.2C27.6,257.5,27.6,340.9,27,424.4z" />
    <path fill="currentColor" d="M563.6,189.5c0.4,72.3,0.4,144.5,0.1,217.6C562.7,394.3,562.7,209,563.6,189.5z" />
    <path fill="currentColor" d="M16.3,397.6c-0.7-66.2-0.7-132.4,0-198.6C16.7,265.2,16.7,331.3,16.3,397.6z" />
    <path fill="currentColor" d="M574.5,227.8c0,48.8,0,97.6,0,146.4C573.8,325.4,573.9,276.5,574.5,227.8z" />
    <path fill="currentColor"
        d="M5.4,363.4c0-40.5,0-81.1,0-121.6c0.1,0,0.2,0,0.3,0c0,40.5,0,81,0,121.5C5.6,363.3,5.5,363.3,5.4,363.4z" />
    <path fill="currentColor"
        d="M5.5,238c0-0.9,0-1.8,0-2.7c0,0,0,0,0.1,0C5.6,236.2,5.6,237.1,5.5,238C5.6,238,5.5,238,5.5,238z" />
    <path fill="currentColor" d="M574.3,224.1c0-0.8,0-1.5,0-2.3c0,0,0,0,0.1,0C574.3,222.6,574.3,223.3,574.3,224.1
		C574.3,224.1,574.3,224.1,574.3,224.1z" />
    <path fill="currentColor"
        d="M574.3,213.8c0-0.2,0-0.3,0-0.4c0-0.1,0-0.1,0.1-0.2C574.3,213.4,574.3,213.6,574.3,213.8z" />
    <path fill="currentColor"
        d="M585.1,267.2c0,0-0.1,0.1-0.1,0.1c0-0.1,0-0.3,0.1-0.4C585.1,267,585.1,267.1,585.1,267.2z" />
    <polygon fill="currentColor" points="585.1,298.7 585,298.5 585.1,298.4 	" />
    <path fill="currentColor"
        d="M574.3,381.1c0-0.1,0-0.2,0-0.3c0,0,0.1,0,0.1,0c0,0.1,0,0.2,0,0.3C574.4,381.2,574.3,381.2,574.3,381.1z" />
    <path fill="currentColor"
        d="M338.3,589c0,0.1,0,0.2,0,0.3c0,0-0.1,0-0.1-0.1c0-0.1,0-0.2,0-0.3C338.2,589,338.3,589,338.3,589z" />
    <path fill="currentColor"
        d="M220.2,585.2c0-0.1,0-0.2,0-0.3c0-0.1,0-0.1,0.1-0.2c0,0.1,0,0.2,0,0.3C220.2,585.1,220.2,585.2,220.2,585.2z" />
    <path fill="currentColor" d="M574.3,385.4c0-0.2,0-0.3,0-0.5C574.3,385.1,574.3,385.2,574.3,385.4z" />
    <path fill="currentColor" d="M413.4,567.4c0,0.1,0,0.2,0,0.3c0,0-0.1,0-0.1,0C413.3,567.6,413.3,567.5,413.4,567.4
		C413.3,567.4,413.4,567.4,413.4,567.4z" />
    <path fill="currentColor" d="M48.4,467.5c0-0.5,0-0.6,0-0.7c0,0,0.1,0,0.1,0C48.5,466.9,48.5,467,48.4,467.5z" />
    <path fill="currentColor" d="M37.8,449.4c0,0.1,0,0.2,0,0.3c0,0-0.1,0-0.1,0C37.7,449.6,37.7,449.5,37.8,449.4
		C37.7,449.4,37.8,449.4,37.8,449.4z" />
    <path fill="currentColor"
        d="M552.9,435c0-0.1,0-0.2,0-0.3c0-0.1,0-0.1,0.1-0.2c0,0.1,0,0.2,0,0.3C552.9,434.9,552.9,434.9,552.9,435z" />
    <path fill="currentColor" d="M563.5,413.8c0-0.5,0-0.6,0-0.7c0,0,0.1,0,0.1,0C563.6,413.2,563.6,413.3,563.5,413.8z" />
    <polygon fill="currentColor" points="499.2,506 499.3,506.3 499.1,506.2 	" />
    <polygon fill="currentColor" points="392,23.2 391.9,23.4 391.8,23.3 	" />
    <polygon fill="currentColor" points="145,45.5 145.1,45.2 145.1,45.4 	" />
    <polygon fill="currentColor" points="477.8,70.9 477.7,70.9 477.8,70.7 	" />

</svg>