<svg version="1.1" xmlns="http://www.w3.org/2000/svg" viewBox="0 0 224.2 42.151">
    <path d="M1,25.951c2,0,3.9,0,5.9,0c0.5,0,1-0.4,1-1c0-2,0-4,0-6c0-0.5-0.4-1-1-1c-2,0-3.9,0-5.9,0c-0.5,0-1,0.4-1,1
	c0,2,0,4,0,6C0.1,25.551,0.5,25.951,1,25.951z" />
    <path d="M1,25.951c-0.3,0-0.6-0.2-0.8-0.4c-0.2-0.3-0.2-0.6-0.2-0.9c0-0.6,0-1.2,0-1.9c0-1.2,0-2.5,0-3.7
	c0-0.3,0.1-0.6,0.4-0.8c0.3-0.2,0.6-0.2,0.9-0.2c0.6,0,1.2,0,1.9,0c1.2,0,2.5,0,3.7,0c0.3,0,0.6,0.2,0.8,0.4
	c0.2,0.3,0.2,0.6,0.2,0.9c0,0.6,0,1.2,0,1.9c0,1.2,0,2.5,0,3.7c0,0.3-0.1,0.6-0.4,0.8c-0.3,0.2-0.6,0.2-0.9,0.2c-0.6,0-1.2,0-1.9,0
	C3.5,25.951,2.3,25.951,1,25.951z" />
    <path d="M215.9,25.951c-3.6,0-7.1,0-10.7,0c-1.8,0-3.6,0-5.3,0c-0.1,0-0.2,0-0.3,0c-0.2,0-0.3,0-0.5,0
	c-0.3,0.1-0.5,0.2-0.6,0.4c-0.1,0.2-0.1,0.3-0.1,0.5c0,0.1,0,0.1,0,0.2s0,0.2,0,0.3c0,0.4,0,0.9,0,1.3c0,0.9,0,1.8,0,2.7
	c0,1.6,0,3.2,0,4.8c0,0.8,0,1.6,0,2.4c0,0.4,0,0.8,0,1.2c0,0.2,0,0.4,0,0.6c0,0.1,0,0.1,0,0.2c0,0.5-0.3,0.8-0.7,0.9
	c-0.2,0-0.3,0-0.5,0c-1.8,0-3.6,0-5.4,0c-0.1,0-0.2,0-0.3,0c-0.6,0-1-0.4-1-1c0-0.2,0-0.4,0-0.6c0-0.4,0-0.8,0-1.2
	c0-0.8,0-1.7,0-2.5c0-1.8,0-3.6,0-5.4c0-0.9,0-1.8,0-2.7c0-0.2,0-0.5,0-0.7c0-0.1,0-0.2,0-0.3c0-0.1,0-0.1,0-0.2
	c0-0.5,0.5-0.9,1-0.9c1,0,2,0,3,0c0.5,0,1,0,1.5,0c0.2,0,0.5,0,0.7,0c0.1,0,0.7,0,0.7,0c0.3,0,0.5-0.1,0.6-0.3
	c0.2-0.2,0.2-0.4,0.2-0.7c0-0.5,0-1,0-1.5c0-1,0-2,0-3c0-0.3,0-0.7,0-1s0-0.7-0.2-1c-0.1-0.2-0.2-0.3-0.4-0.3
	c-0.2-0.1-0.3-0.1-0.5-0.1c-0.3,0-0.7,0-1,0c-1.4,0-2.7,0-4.1,0c-0.2,0-0.3,0-0.5,0s-0.3,0-0.5-0.1c-0.3-0.2-0.5-0.5-0.6-0.8
	c0-0.1,0-0.2,0-0.3c0-0.2,0-0.3,0-0.5c0-0.3,0-0.6,0-0.9c0-1.7,0.1-3.3,0.5-4.9c0.4-1.9,1.1-3.7,2.3-5.3c2.1-2.8,5.3-4.2,8.6-4.8
	c3.7-0.7,8.8-0.6,12.5,0.4c6.2,1.7,9.1,6.1,9.6,12.2c0.1,1.1,0.1,2.2,0.1,3.4c0,0.9,0,1.7,0,2.6c0,3.6,0,7.2,0,10.8
	c0,1.8,0,3.6,0,5.4c0,0.9,0,1.8,0,2.7c0,0.5,0,0.9,0,1.4c0,0.2,0,0.5,0,0.7c0,0.1,0,0.2,0,0.3c0,0.1,0,0.1,0,0.2s0,0.2-0.1,0.4
	c-0.1,0.3-0.3,0.5-0.5,0.6s-0.4,0.1-0.7,0.1c-0.1,0-0.2,0-0.3,0c-0.2,0-0.4,0-0.7,0c-0.4,0-0.9,0-1.3,0c-0.9,0-1.8,0-2.6,0
	c-0.2,0-0.4,0-0.7,0s-0.6,0-0.8-0.2s-0.3-0.4-0.4-0.6c0-0.1,0-0.1,0-0.2s0-0.1,0-0.2c0-0.4,0-0.9,0-1.3c0-0.9,0-1.8,0-2.6
	C215.9,32.951,215.9,29.451,215.9,25.951z M215.9,18.051c0-0.5,0-1,0-1.5c0-0.2,0-0.5,0-0.7c0-1.4-0.1-2.8-0.4-4.1
	c-0.3-1.1-0.7-2-1.5-2.8s-1.7-1.2-2.7-1.5s-1.9-0.4-2.9-0.5c-1.1-0.1-2.3,0-3.4,0.1c-1.1,0.1-2.3,0.4-3.3,0.9
	c-0.9,0.5-1.6,1.1-2.1,2c-0.4,0.6-0.6,1.3-0.8,2.1c-0.2,0.9-0.3,1.8-0.4,2.8c0,0.5,0,0.9,0,1.4c0,0.2,0,0.4,0,0.6c0,0.1,0,0.2,0,0.3
	c0,0.1,0,0.2,0,0.3c0.1,0.2,0.2,0.4,0.4,0.6c0.2,0.1,0.4,0.1,0.6,0.1c0.4,0,0.8,0,1.3,0c0.8,0,1.7,0,2.5,0
	C207.4,18.051,211.6,18.051,215.9,18.051z" />
    <path d="M171.1,40.651c0-8,0-16.1,0-24.1c0-4,0-8,0-12.1c0-0.5,0-1,0-1.5c0-0.3,0-0.5,0-0.8c0-0.1,0-0.7,0-0.7
	c0-0.3,0.1-0.5,0.3-0.7s0.4-0.2,0.7-0.2c0.5,0,1,0,1.5,0c1,0,2,0,3,0c0.5,0,1,0,1.5,0s1,0.4,1,1c0,8,0,16.1,0,24.1c0,4,0,8,0,12.1
	c0,0.5,0,1,0,1.5c0,0.3,0,0.5,0,0.8c0,0.1,0,0.7,0,0.7c0,0.3-0.1,0.5-0.3,0.7s-0.4,0.2-0.7,0.2c-0.5,0-1,0-1.5,0c-1,0-2,0-3,0
	c-0.5,0-1,0-1.5,0C171.5,41.551,171.1,41.151,171.1,40.651z" />
    <path d="M149.1,21.751c2.1,1.7,4,3.6,5.6,5.8c1.3,1.8,2.4,3.6,3.3,5.6c0.7,1.5,1.2,3.1,1.6,4.7
	c0.1,0.6,0.2,1.2,0.3,1.8c0,0.2,0.1,0.5,0.1,0.7s0,0.3,0,0.5c-0.1,0.5-0.5,0.9-1,0.9c-0.1,0-0.1,0-0.2,0c-0.1,0-0.2,0-0.3,0
	c-0.4,0-0.8,0-1.3,0c-0.8,0-1.7,0-2.5,0c-0.4,0-0.8,0-1.2,0c-0.1,0-0.2,0-0.3,0s-0.3,0-0.4-0.1c-0.2-0.1-0.4-0.3-0.5-0.5
	c-0.1-0.1-0.1-0.2-0.1-0.3c0-0.2-0.1-0.3-0.1-0.5c-0.1-0.4-0.2-0.9-0.3-1.3c-0.3-1.2-0.8-2.4-1.4-3.5c-0.8-1.6-1.7-3-2.8-4.3
	c-1.4-1.7-3.1-3.1-4.9-4.4c-0.3-0.2-0.5-0.4-0.8-0.5c-0.1-0.1-0.2-0.2-0.4-0.2c-0.1-0.1-0.2-0.1-0.3-0.1c-0.4,0-0.6,0.1-0.9,0.3
	c-2.4,1.6-4.6,3.5-6.3,5.8c-1.3,1.7-2.3,3.4-3,5.4c-0.3,0.7-0.5,1.4-0.7,2.1c-0.1,0.3-0.1,0.6-0.2,0.8c0,0.2-0.1,0.4-0.1,0.7
	c-0.1,0.3-0.3,0.6-0.6,0.7c-0.1,0.1-0.3,0.1-0.4,0.1c-0.3,0-0.5,0-0.8,0c-0.5,0-1.1,0-1.6,0c-1.1,0-2.2,0-3.3,0
	c-0.3,0-0.5-0.1-0.7-0.3c-0.4-0.4-0.3-0.8-0.2-1.3c0.3-2.3,0.9-4.5,1.9-6.7c1.5-3.5,3.6-6.5,6.2-9.2c0.8-0.8,1.7-1.6,2.6-2.3
	c0.2-0.1,0.3-0.3,0.4-0.5c0.1-0.2,0.1-0.4,0-0.6c0-0.1-0.1-0.2-0.1-0.3c-0.1-0.1-0.2-0.2-0.3-0.3c-2.3-1.9-4.3-4-6-6.5
	c-1.3-1.9-2.4-3.9-3.2-6.1c-0.6-1.5-1-3.1-1.3-4.7c0-0.3-0.1-0.6-0.1-0.8c0-0.2-0.1-0.4-0.1-0.6c0-0.3,0.1-0.5,0.3-0.7
	c0.3-0.2,0.6-0.2,0.9-0.2c0.1,0,0.2,0,0.4,0c0.5,0,0.9,0,1.4,0c0.8,0,1.6,0,2.3,0c0.4,0,0.8,0,1.2,0c0.2,0,0.3,0,0.5,0
	c0.2,0.1,0.4,0.2,0.5,0.4c0.1,0.2,0.2,0.4,0.2,0.7c0.1,0.9,0.4,1.7,0.6,2.6c1,2.9,2.6,5.4,4.6,7.6c1.5,1.6,3.1,2.9,4.9,4.1
	c0.3,0.2,0.5,0.4,0.9,0.4c0.1,0,0.2,0,0.3-0.1c0.1,0,0.1,0,0.1-0.1c0.2-0.1,0.4-0.2,0.6-0.4c2.3-1.6,4.3-3.3,6-5.5
	c1.3-1.6,2.3-3.3,3-5.3c0.3-0.7,0.5-1.5,0.7-2.2c0.1-0.3,0.2-0.6,0.2-1c0-0.1,0.1-0.3,0.1-0.4s0-0.2,0.1-0.3
	c0.1-0.3,0.3-0.5,0.7-0.6c0.1,0,0.2,0,0.3,0c0.3,0,0.6,0,0.8,0c0.6,0,1.1,0,1.7,0c0.6,0,1.1,0,1.7,0c0.3,0,0.6,0,0.8,0
	c0.1,0,0.3,0,0.4,0c0.2,0,0.4,0,0.7,0c0.3,0.1,0.5,0.3,0.6,0.6c0.1,0.2,0.1,0.3,0,0.5c0,0.3-0.1,0.7-0.2,1c-0.3,1.9-0.8,3.7-1.5,5.4
	c-1,2.4-2.2,4.6-3.7,6.7c-0.9,1.2-1.9,2.4-3,3.5c-0.6,0.6-1.2,1.2-1.9,1.7c-0.3,0.3-0.7,0.6-1,0.9c-0.1,0.1-0.2,0.1-0.3,0.2l0,0l0,0
	c0,0,0,0,0.1,0.1l0.1,0.1C148.7,21.451,148.9,21.551,149.1,21.751z" />
    <path d="M96.9,42.151c-2.4,0-4.8-0.2-7.2-0.9c-1.9-0.5-3.7-1.4-5.2-2.7c-1.4-1.2-2.5-2.7-3.2-4.4
	c-0.8-2-1.2-4.1-1.2-6.2c0-0.8,0-1.7,0-2.5c0-0.5,0-1,0-1.5c0-1,0-2,0-3c0-2,0-4,0-6c0-4,0-8,0-12c0-0.5,0-0.9,0-1.4s0.3-0.9,0.9-1
	c0.1,0,0.2,0,0.3,0c0.1,0,0.3,0,0.4,0c0.3,0,0.5,0,0.8,0c1,0,2,0,3,0c0.5,0,1,0,1.5,0c0.1,0,0.1,0,0.2,0s0.3,0,0.4,0.1
	c0.3,0.1,0.5,0.3,0.6,0.5s0.1,0.4,0.1,0.7c0,0.2,0,0.5,0,0.7c0,0.9,0,1.8,0,2.7c0,3.6,0,7.2,0,10.8c0,2.1,0,4.2,0,6.2
	c0,1,0,2.1,0,3.1c0,1.4,0,2.8,0.2,4.1c0.3,1.8,1,3.4,2.6,4.4c0.8,0.5,1.6,0.8,2.5,1c1.2,0.3,2.3,0.3,3.5,0.3s2.4-0.1,3.5-0.3
	c0.9-0.2,1.7-0.5,2.5-1c1.6-1.1,2.3-2.7,2.6-4.4c0.2-1.4,0.2-2.8,0.2-4.1c0-1,0-2.1,0-3.1c0-2.1,0-4.2,0-6.2c0-3.6,0-7.2,0-10.8
	c0-0.9,0-1.8,0-2.7c0-0.2,0-0.5,0-0.7s0-0.4,0.1-0.7c0.1-0.2,0.3-0.4,0.6-0.5c0.1,0,0.2-0.1,0.4-0.1c0.1,0,0.1,0,0.2,0
	c0.5,0,1,0,1.5,0c1,0,2,0,3,0c0.3,0,0.5,0,0.8,0c0.1,0,0.3,0,0.4,0c0.1,0,0.2,0,0.3,0c0.5,0.1,0.9,0.5,0.9,1s0,0.9,0,1.4
	c0,4,0,8,0,12c0,2,0,4,0,6c0,1,0,2,0,3c0,0.5,0,1,0,1.5c0,0.9,0,1.7,0,2.6c-0.1,2.1-0.4,4.3-1.3,6.2c-0.7,1.7-1.8,3.2-3.2,4.4
	c-1.5,1.3-3.3,2.1-5.2,2.7C101.7,41.951,99.3,42.151,96.9,42.151z" />
    <path d="M46.6,34.751c0-5.7,0-11.3,0-17c0-2.8,0-5.7,0-8.5c0-1.4,0-2.8,0-4.2c0-0.7,0-1.4,0-2.1c0-0.4,0-0.7,0-1.1
	s0-0.7,0.2-1c0.1-0.1,0.3-0.2,0.5-0.3c0.2,0,0.3,0,0.5,0c0.4,0,0.7,0,1.1,0c0.7,0,1.4,0,2.1,0s1.4,0,2.1,0c0.2,0,0.4,0,0.5,0
	c0.2,0,0.3,0,0.5,0.1c0.3,0.2,0.5,0.5,0.5,0.9c0,2.8,0,5.7,0,8.5c0,5.7,0,11.3,0,17c0,1.4,0,2.8,0,4.2c0,0.7,0,1.4,0,2.1
	c0,0.4-0.1,0.7,0.2,1c0.1,0.2,0.3,0.3,0.4,0.3c0.2,0.1,0.3,0.1,0.5,0.1c2.8,0,5.7,0,8.5,0s5.6,0,8.5,0c0.2,0,0.4,0,0.5,0
	c0.2,0,0.3,0,0.5,0c0.4,0,0.7,0.3,0.8,0.6c0.1,0.2,0.1,0.3,0.1,0.5s0,0.4,0,0.5c0,0.4,0,0.7,0,1.1c0,0.7,0,1.4,0,2.1
	c0,0.4,0,0.7,0,1.1s-0.2,0.7-0.6,0.8c-0.2,0.1-0.3,0.1-0.5,0.1s-0.4,0-0.5,0c-0.4,0-0.7,0-1.1,0c-0.7,0-1.4,0-2.1,0
	c-1.4,0-2.8,0-4.2,0c-2.8,0-5.7,0-8.5,0s-5.7,0-8.5,0c-0.4,0-0.7,0-1.1,0s-0.7-0.2-0.9-0.5c-0.1-0.2-0.1-0.3-0.1-0.5s0-0.4,0-0.5
	c0-0.4,0-0.7,0-1.1C46.6,37.551,46.6,36.151,46.6,34.751z" />
    <path d="M9.3,1.551c0-0.5,0.4-0.9,0.9-1c0.2,0,0.5,0,0.7,0s0.5,0,0.7,0c1,0,1.9,0,2.9,0c1.9,0,3.8,0,5.8,0
	c3.8,0,7.7,0,11.5,0c1.9,0,3.8,0,5.8,0c0.2,0,0.5,0,0.7,0.2c0.2,0.1,0.4,0.4,0.4,0.6c0,0.1,0,0.6,0,0.7c0,0.2,0,0.5,0,0.7
	c0,1,0,1.9,0,2.9c0,0.5,0,1,0,1.4c0,0.2,0,0.5,0,0.7c-0.1,0.2-0.2,0.4-0.5,0.6c-0.2,0.1-0.5,0.1-0.7,0.1s-0.5,0-0.7,0
	c-0.5,0-1,0-1.4,0c-1.9,0-3.8,0-5.8,0c-1.9,0-3.8,0-5.8,0c-1,0-1.9,0-2.9,0c-0.5,0-1,0-1.4,0c-0.2,0-0.5,0-0.7,0c-0.1,0-0.6,0-0.7,0
	c-0.5,0.1-0.9,0.5-0.9,1s0,1,0,1.4c0,1,0,1.9,0,2.9s0,1.9,0,2.9c0,0.2,0,0.5,0,0.7c0.1,0.2,0.2,0.5,0.4,0.6c0.2,0.1,0.4,0.1,0.7,0.1
	c0.2,0,0.5,0,0.7,0c3.8,0,7.7,0,11.5,0c0.5,0,1,0,1.4,0c0.2,0,0.5,0,0.7,0s0.5,0,0.7,0.1s0.4,0.3,0.5,0.5s0.1,0.5,0.1,0.7
	c0,0.5,0,1,0,1.4c0,1,0,1.9,0,2.9c0,0.2,0,0.5,0,0.7s0,0.5,0,0.7c0,0.5-0.5,0.9-1,0.9c-3.8,0-7.7,0-11.5,0c-1,0-1.9,0-2.9,0
	c-0.1,0-0.6,0-0.7,0c-0.2,0-0.5,0.2-0.6,0.4c-0.2,0.2-0.2,0.4-0.2,0.7c0,0.2,0,0.5,0,0.7c0,1.9,0,3.8,0,5.8c0,1.9,0,3.8,0,5.8
	c0,0.2,0,0.5,0,0.7s0,0.5,0,0.7c0,0.5-0.4,0.9-0.9,0.9s-1,0-1.4,0c-0.5,0-1,0-1.4,0c-1,0-1.9,0-2.9,0c-0.2,0-0.5,0-0.7-0.1
	s-0.4-0.3-0.5-0.6c-0.1-0.2,0-0.5,0-0.7s0-0.5,0-0.7c0-1.9,0-3.8,0-5.8c0-1.9,0-3.8,0-5.8c0-0.2,0-0.5,0-0.7s0-0.5,0.1-0.7
	s0.3-0.4,0.5-0.5s0.5-0.1,0.7-0.1c1,0,1.9,0,2.9,0c0.5,0,1,0,1.4,0c0.2,0,0.5,0,0.7,0s0.5,0,0.7,0c0.2-0.1,0.5-0.2,0.6-0.4
	c0.1-0.2,0.1-0.4,0.1-0.7c0-0.5,0-1,0-1.4c0-1,0-1.9,0-2.9c0-0.5,0-1,0-1.4c0-0.5-0.4-0.9-0.9-1c-0.1,0-0.2,0-0.4,0
	c-0.1,0-0.2,0-0.4,0c-0.2,0-0.5,0-0.7,0c-0.5,0-1,0-1.4,0c-1,0-1.9,0-2.9,0c-0.2,0-0.5,0-0.7-0.1s-0.4-0.3-0.4-0.6
	c0-0.2,0-0.6,0-0.7c0-0.2,0-0.5,0-0.7c0-1,0-1.9,0-2.9C9.3,9.251,9.3,5.351,9.3,1.551z" />
    <path d="M222.1,6.851L222.1,6.851c-1.2-2.3-3.1-4-5.6-5.1s-5.6-1.7-9.4-1.7c-3.8,0-6.9,0.6-9.4,1.7l0,0
	c-2.5,1.1-4.4,2.8-5.6,5.1c-1.2,2.3-1.8,5.1-1.8,8.5c0,0.6,0,1.2,0,1.8c0,0.5,0.4,1,1,1c2,0,3.9,0,5.9,0c0.5,0,1,0.4,1,1
	c0,2,0,4,0,6c0,0.5-0.4,1-1,1c-2,0-3.9,0-5.9,0c-0.5,0-1,0.4-1,1c0,4.6,0,9.2,0,13.7c0,0.5,0.4,1,1,1c2,0,4,0,6.1,0c0.5,0,1-0.4,1-1
	c0-4.6,0-9.1,0-13.7c0-0.5,0.4-1,1-1c5.6,0,11.1,0,16.7,0c0,4.9,0,9.8,0,14.7c0,0.5,0.4,1,1,1c2,0,4.1,0,6.1,0c0.5,0,1-0.4,1-1
	c0-8.4,0-16.9,0-25.3C223.9,11.951,223.3,9.051,222.1,6.851z M215.9,18.051c-5.6,0-11.1,0-16.7,0c-0.5,0-1-0.4-1-1c0-0.5,0-1,0-1.6
	c0-2.1,0.3-3.8,0.9-5.1l0,0c0.5-1.2,1.5-2.2,2.8-2.7l0,0c1.3-0.6,3-0.8,5.2-0.8s3.9,0.3,5.1,0.8l0,0c1.2,0.5,2.2,1.5,2.8,2.7l0,0
	c0.6,1.3,0.9,2.9,0.9,5.1C215.9,16.351,215.9,17.251,215.9,18.051z" />
    <path d="M96.9,42.151c-3.8,0-6.9-0.6-9.4-1.7l0,0c-2.5-1.1-4.4-2.8-5.6-5.1l0,0c-1.2-2.3-1.8-5.1-1.8-8.5
	c0-8.4,0-16.9,0-25.3c0-0.5,0.4-1,1-1c2,0,4,0,6.1,0c0.5,0,1,0.4,1,1c0,8.4,0,16.7,0,25.1c0,2.1,0.3,3.8,0.9,5.1l0,0
	c0.5,1.2,1.5,2.2,2.8,2.7l0,0c1.3,0.6,3,0.8,5.2,0.8s3.9-0.3,5.2-0.8l0,0c1.2-0.5,2.2-1.5,2.8-2.7l0,0c0.6-1.3,0.9-2.9,0.9-5.1
	c0-8.4,0-16.7,0-25.1c0-0.5,0.4-1,1-1c2,0,4,0,6.1,0c0.5,0,1,0.4,1,1c0,8.4,0,16.9,0,25.3c0,3.4-0.6,6.3-1.8,8.5l0,0
	c-1.2,2.3-3.1,4-5.6,5.1l0,0C103.8,41.551,100.6,42.151,96.9,42.151z" />
    <path d="M149.1,21.751c9,7.3,10.6,15.9,10.9,18.8c0.1,0.6-0.4,1.1-1,1.1c-1.9,0-3.9,0-5.8,0c-0.5,0-0.9-0.4-1-0.8
	c-0.3-2.4-2-9.3-10.5-14.9c-0.3-0.2-0.7-0.2-1,0c-8.6,5.6-10.2,12.5-10.5,14.9c-0.1,0.5-0.5,0.8-1,0.8c-1.9,0-3.9,0-5.8,0
	c-0.6,0-1-0.5-1-1.1c0.3-3,1.9-11.5,10.8-18.7c0.5-0.4,0.5-1.1,0-1.5c-8.9-7.3-10.5-15.8-10.8-18.7c-0.1-0.6,0.4-1.1,1-1.1
	c1.9,0,3.9,0,5.8,0c0.5,0,0.9,0.4,1,0.8c0.3,2.4,2,9.3,10.5,14.9c0.3,0.2,0.7,0.2,1,0c8-5.2,10-11.6,10.5-14.9
	c0.1-0.5,0.5-0.8,1-0.8c1.9,0,3.9,0,5.8,0c0.6,0,1,0.5,1,1.1c-0.5,3.9-2.4,11.9-10.9,18.8c-0.3,0.2-0.5,0.4-0.8,0.6
	C148.5,21.251,148.8,21.551,149.1,21.751z" />
    <path d="M9.3,1.551c0-0.5,0.4-1,1-1c9.2,0,18.3,0,27.5,0c0.5,0,1,0.4,1,1c0,2,0,4,0,6c0,0.5-0.4,1-1,1
	c-6.5,0-13.1,0-19.6,0c-0.5,0-1,0.4-1,1c0,2.6,0,5.1,0,7.7c0,0.5,0.4,1,1,1c5,0,10,0,15,0c0.5,0,1,0.4,1,1c0,2,0,4,0,6
	c0,0.5-0.4,1-1,1c-5,0-10,0-15,0c-0.5,0-1,0.4-1,1c0,4.6,0,9.1,0,13.7c0,0.5-0.4,1-1,1c-2,0-4,0-6,0c-0.5,0-1-0.4-1-1
	c0-4.6,0-9.1,0-13.7c0-0.5,0.4-1,1-1c2,0,3.9,0,5.9,0c0.5,0,1-0.4,1-1c0-2,0-4,0-6c0-0.5-0.4-1-1-1c-2,0-3.9,0-5.9,0
	c-0.5,0-1-0.4-1-1C9.3,11.951,9.3,6.751,9.3,1.551z" />
    <path d="M171.1,40.651c0,0.5,0.4,1,1,1c2,0,4.1,0,6.1,0c0.5,0,1-0.4,1-1c0-13,0-26.1,0-39.1c0-0.5-0.4-1-1-1
	c-2,0-4.1,0-6.1,0c-0.5,0-1,0.4-1,1C171.1,14.551,171.1,27.651,171.1,40.651z" />
    <path d="M46.6,34.751c0,2,0,3.9,0,5.9c0,0.5,0.4,1,1,1c8.7,0,17.4,0,26.1,0c0.5,0,1-0.4,1-1c0-1.6,0-3.3,0-4.9
	c0-0.5-0.4-1-1-1c-6,0-12.1,0-18.1,0c-0.5,0-1-0.4-1-1c0-10.8,0-21.5,0-32.3c0-0.5-0.4-1-1-1c-2,0-4.1,0-6.1,0c-0.5,0-1,0.4-1,1
	c0,13.1,0,26.2,0,39.2" />
</svg>